<svg width="167" height="168" xmlns="http://www.w3.org/2000/svg" xmlns:xlink="http://www.w3.org/1999/xlink" xml:space="preserve" overflow="hidden"><defs><clipPath id="clip0"><rect x="279" y="424" width="167" height="168"/></clipPath></defs><g clip-path="url(#clip0)" transform="translate(-279 -424)"><path d="M132.208 31.3125C132.208 38.9985 110.401 45.2292 83.5 45.2292 56.5991 45.2292 34.7917 38.9985 34.7917 31.3125 34.7917 23.6265 56.5991 17.3958 83.5 17.3958 110.401 17.3958 132.208 23.6265 132.208 31.3125Z" fill="#FFFFFF" transform="matrix(1 0 0 1.00599 279 424)"/><path d="M118.292 66.1042C116.204 66.1042 114.812 64.7125 114.812 62.625 114.812 60.5375 116.204 59.1458 118.292 59.1458 120.379 59.1458 121.771 60.5375 121.771 62.625 121.771 64.7125 120.379 66.1042 118.292 66.1042ZM83.5 52.1875C56.7104 52.1875 34.7917 45.925 34.7917 38.2708L34.7917 66.1042C34.7917 73.7583 56.7104 80.0208 83.5 80.0208 110.29 80.0208 132.208 73.7583 132.208 66.1042L132.208 38.2708C132.208 45.925 110.29 52.1875 83.5 52.1875Z" fill="#FFFFFF" transform="matrix(1 0 0 1.00599 279 424)"/><path d="M118.292 100.896C116.204 100.896 114.812 99.5042 114.812 97.4167 114.812 95.3292 116.204 93.9375 118.292 93.9375 120.379 93.9375 121.771 95.3292 121.771 97.4167 121.771 99.5042 120.379 100.896 118.292 100.896ZM83.5 86.9792C56.7104 86.9792 34.7917 80.7167 34.7917 73.0625L34.7917 100.896C34.7917 108.55 56.7104 114.812 83.5 114.812 110.29 114.812 132.208 108.55 132.208 100.896L132.208 73.0625C132.208 80.7167 110.29 86.9792 83.5 86.9792Z" fill="#FFFFFF" transform="matrix(1 0 0 1.00599 279 424)"/><path d="M118.292 135.688C116.204 135.688 114.812 134.296 114.812 132.208 114.812 130.121 116.204 128.729 118.292 128.729 120.379 128.729 121.771 130.121 121.771 132.208 121.771 134.296 120.379 135.688 118.292 135.688ZM83.5 121.771C56.7104 121.771 34.7917 115.508 34.7917 107.854L34.7917 135.688C34.7917 143.342 56.7104 149.604 83.5 149.604 110.29 149.604 132.208 143.342 132.208 135.688L132.208 107.854C132.208 115.508 110.29 121.771 83.5 121.771Z" fill="#FFFFFF" transform="matrix(1 0 0 1.00599 279 424)"/></g></svg>