<svg width="3272" height="871" xmlns="http://www.w3.org/2000/svg" xmlns:xlink="http://www.w3.org/1999/xlink" xml:space="preserve" overflow="hidden"><defs><filter id="fx0" x="-10%" y="-10%" width="120%" height="120%" filterUnits="userSpaceOnUse" primitiveUnits="userSpaceOnUse"><feComponentTransfer color-interpolation-filters="sRGB"><feFuncR type="discrete" tableValues="1 1"/><feFuncG type="discrete" tableValues="1 1"/><feFuncB type="discrete" tableValues="1 1"/><feFuncA type="linear" slope="0.819608" intercept="0"/></feComponentTransfer><feGaussianBlur stdDeviation="6.11484 6.10411"/></filter><clipPath id="clip1"><rect x="751" y="471" width="3272" height="871"/></clipPath><clipPath id="clip2"><rect x="-6.50397" y="-6.49255" width="830.007" height="230.985"/></clipPath><clipPath id="clip3"><rect x="0" y="0" width="819" height="218"/></clipPath><clipPath id="clip4"><rect x="867" y="501" width="754" height="755"/></clipPath><clipPath id="clip5"><rect x="867" y="501" width="754" height="755"/></clipPath><clipPath id="clip6"><rect x="867" y="501" width="754" height="755"/></clipPath></defs><g clip-path="url(#clip1)" transform="translate(-751 -471)"><g clip-path="url(#clip2)" filter="url(#fx0)" transform="matrix(3.99756 0 0 4.00459 750 470)"><g clip-path="url(#clip3)" transform="translate(-2.84217e-14 0)"><path d="M19.3004 19.2533 766.109 19.2533 799.777 52.8621 799.777 198.797 799.777 198.797 52.9683 198.797 19.3004 165.189 19.3004 19.2533Z" stroke="#FFFFFF" stroke-miterlimit="8" fill="none" fill-rule="evenodd"/></g></g><path d="M796.5 519.5 3781.91 519.5 3916.5 654.089 3916.5 1238.5 3916.5 1238.5 931.089 1238.5 796.5 1103.91 796.5 519.5Z" stroke="#FFFFFF" stroke-width="4.58333" stroke-miterlimit="8" fill="none" fill-rule="evenodd"/><g clip-path="url(#clip4)"><g clip-path="url(#clip5)"><g clip-path="url(#clip6)"><path d="M62.6667 133.167 62.6667 618.833 689.333 618.833 689.333 133.167 62.6667 133.167ZM164.5 195.833C164.5 204.45 157.45 211.5 148.833 211.5 140.217 211.5 133.167 204.45 133.167 195.833 133.167 187.217 140.217 180.167 148.833 180.167 157.45 180.167 164.5 187.217 164.5 195.833ZM219.333 195.833C219.333 204.45 212.283 211.5 203.667 211.5 195.05 211.5 188 204.45 188 195.833 188 187.217 195.05 180.167 203.667 180.167 212.283 180.167 219.333 187.217 219.333 195.833ZM274.167 195.833C274.167 204.45 267.117 211.5 258.5 211.5 249.883 211.5 242.833 204.45 242.833 195.833 242.833 187.217 249.883 180.167 258.5 180.167 267.117 180.167 274.167 187.217 274.167 195.833ZM109.667 258.5 642.333 258.5 642.333 571.833 109.667 571.833 109.667 258.5Z" fill="#FFFFFF" transform="matrix(1 0 0 1.00133 868 502)"/><path d="M468.433 403.417 557.733 314.117 579.667 336.05 512.3 403.417 579.667 470.783 557.733 492.717Z" fill="#FFFFFF" transform="matrix(1 0 0 1.00133 868 502)"/><path d="M329.783 462.167 455.117 462.167 455.117 493.5 329.783 493.5Z" fill="#FFFFFF" transform="matrix(1 0 0 1.00133 868 502)"/></g></g></g><text fill="#FFFFFF" font-family="Biome,Biome_MSFontService,sans-serif" font-weight="400" font-size="202" transform="matrix(1 0 0 1 1734.47 842)">EXPERIÊNCIAS E </text><text fill="#FFFFFF" font-family="Biome,Biome_MSFontService,sans-serif" font-weight="400" font-size="202" transform="matrix(1 0 0 1 1734.47 1084)">HABILIDADES</text></g></svg>