<svg width="3543" height="899" xmlns="http://www.w3.org/2000/svg" xmlns:xlink="http://www.w3.org/1999/xlink" xml:space="preserve" overflow="hidden"><defs><filter id="fx0" x="-10%" y="-10%" width="120%" height="120%" filterUnits="userSpaceOnUse" primitiveUnits="userSpaceOnUse"><feComponentTransfer color-interpolation-filters="sRGB"><feFuncR type="discrete" tableValues="1 1"/><feFuncG type="discrete" tableValues="1 1"/><feFuncB type="discrete" tableValues="1 1"/><feFuncA type="linear" slope="0.819608" intercept="0"/></feComponentTransfer><feGaussianBlur stdDeviation="6.11305 6.10352"/></filter><clipPath id="clip1"><rect x="362" y="363" width="3543" height="899"/></clipPath><clipPath id="clip2"><rect x="-6.50206" y="-6.49192" width="802.004" height="213.984"/></clipPath><clipPath id="clip3"><rect x="0" y="0" width="789" height="201"/></clipPath><clipPath id="clip4"><rect x="525" y="485" width="656" height="655"/></clipPath><clipPath id="clip5"><rect x="525" y="485" width="656" height="655"/></clipPath><clipPath id="clip6"><rect x="525" y="485" width="656" height="655"/></clipPath></defs><g clip-path="url(#clip1)" transform="translate(-362 -363)"><g clip-path="url(#clip2)" filter="url(#fx0)" transform="matrix(3.99873 0 0 4.00498 752 438)"><g clip-path="url(#clip3)"><path d="M18.6696 18.6273 712.06 18.6273 770.158 76.6342 770.158 182.174 770.158 182.174 76.767 182.174 18.6696 124.167 18.6696 18.6273Z" fill="#BFBFBF" fill-rule="evenodd"/></g></g><path d="M796 485 3568.68 485 3801 717.317 3801 1140 3801 1140 1028.32 1140 796 907.683 796 485Z" fill="#BFBFBF" fill-rule="evenodd"/><path d="M362 1262 362 585.925 584.924 363 1350 363 1350 363 1350 1039.08 1127.08 1262 362 1262Z" fill-rule="evenodd"/><g clip-path="url(#clip4)"><g clip-path="url(#clip5)"><g clip-path="url(#clip6)"><path d="M54.5 115.813 54.5 538.188 599.5 538.188 599.5 115.813 54.5 115.813ZM143.063 170.313C143.063 177.806 136.931 183.938 129.438 183.938 121.944 183.938 115.813 177.806 115.813 170.313 115.813 162.819 121.944 156.688 129.438 156.688 136.931 156.688 143.063 162.819 143.063 170.313ZM190.75 170.313C190.75 177.806 184.619 183.938 177.125 183.938 169.631 183.938 163.5 177.806 163.5 170.313 163.5 162.819 169.631 156.688 177.125 156.688 184.619 156.688 190.75 162.819 190.75 170.313ZM238.438 170.313C238.438 177.806 232.306 183.938 224.813 183.938 217.319 183.938 211.188 177.806 211.188 170.313 211.188 162.819 217.319 156.688 224.813 156.688 232.306 156.688 238.438 162.819 238.438 170.313ZM95.375 224.813 558.625 224.813 558.625 497.313 95.375 497.313 95.375 224.813Z" fill="#BDD7EE" transform="matrix(1 0 0 1.00153 526 485)"/><path d="M407.388 350.844 485.05 273.181 504.125 292.256 445.538 350.844 504.125 409.431 485.05 428.506Z" fill="#BDD7EE" transform="matrix(1 0 0 1.00153 526 485)"/><path d="M286.806 401.938 395.806 401.938 395.806 429.188 286.806 429.188Z" fill="#BDD7EE" transform="matrix(1 0 0 1.00153 526 485)"/></g></g></g></g></svg>