<svg width="3272" height="1120" xmlns="http://www.w3.org/2000/svg" xmlns:xlink="http://www.w3.org/1999/xlink" xml:space="preserve" overflow="hidden"><defs><filter id="fx0" x="-10%" y="-10%" width="120%" height="120%" filterUnits="userSpaceOnUse" primitiveUnits="userSpaceOnUse"><feComponentTransfer color-interpolation-filters="sRGB"><feFuncR type="discrete" tableValues="1 1"/><feFuncG type="discrete" tableValues="1 1"/><feFuncB type="discrete" tableValues="1 1"/><feFuncA type="linear" slope="0.819608" intercept="0"/></feComponentTransfer><feGaussianBlur stdDeviation="6.11484 6.122"/></filter><clipPath id="clip1"><rect x="751" y="370" width="3272" height="1120"/></clipPath><clipPath id="clip2"><rect x="-6.50397" y="-6.51159" width="831.007" height="294.023"/></clipPath><clipPath id="clip3"><rect x="0" y="0" width="819" height="281"/></clipPath><clipPath id="clip4"><rect x="894" y="525" width="753" height="754"/></clipPath><clipPath id="clip5"><rect x="894" y="525" width="753" height="754"/></clipPath><clipPath id="clip6"><rect x="894" y="525" width="753" height="754"/></clipPath></defs><g clip-path="url(#clip1)" transform="translate(-751 -370)"><g clip-path="url(#clip2)" filter="url(#fx0)" transform="matrix(3.99756 0 0 3.99288 750 369)"><g clip-path="url(#clip3)" transform="translate(-2.84217e-14 0)"><path d="M19.3005 19.3097 754.45 19.3097 799.777 64.6901 799.777 261.741 799.777 261.741 64.6277 261.741 19.3005 216.361 19.3005 19.3097Z" stroke="#FFFFFF" stroke-miterlimit="8" fill="none" fill-rule="evenodd"/></g></g><path d="M796.5 418.5 3735.3 418.5 3916.5 599.698 3916.5 1386.5 3916.5 1386.5 977.698 1386.5 796.5 1205.3 796.5 418.5Z" stroke="#FFFFFF" stroke-width="4.58333" stroke-miterlimit="8" fill="none" fill-rule="evenodd"/><g clip-path="url(#clip4)"><g clip-path="url(#clip5)"><g clip-path="url(#clip6)"><path d="M62.6667 133.167 62.6667 618.833 689.333 618.833 689.333 133.167 62.6667 133.167ZM164.5 195.833C164.5 204.45 157.45 211.5 148.833 211.5 140.217 211.5 133.167 204.45 133.167 195.833 133.167 187.217 140.217 180.167 148.833 180.167 157.45 180.167 164.5 187.217 164.5 195.833ZM219.333 195.833C219.333 204.45 212.283 211.5 203.667 211.5 195.05 211.5 188 204.45 188 195.833 188 187.217 195.05 180.167 203.667 180.167 212.283 180.167 219.333 187.217 219.333 195.833ZM274.167 195.833C274.167 204.45 267.117 211.5 258.5 211.5 249.883 211.5 242.833 204.45 242.833 195.833 242.833 187.217 249.883 180.167 258.5 180.167 267.117 180.167 274.167 187.217 274.167 195.833ZM109.667 258.5 642.333 258.5 642.333 571.833 109.667 571.833 109.667 258.5Z" fill="#FFFFFF" transform="matrix(1.00133 0 0 1 894 526)"/><path d="M468.433 403.417 557.733 314.117 579.667 336.05 512.3 403.417 579.667 470.783 557.733 492.717Z" fill="#FFFFFF" transform="matrix(1.00133 0 0 1 894 526)"/><path d="M329.783 462.167 455.117 462.167 455.117 493.5 329.783 493.5Z" fill="#FFFFFF" transform="matrix(1.00133 0 0 1 894 526)"/></g></g></g><text fill="#FFFFFF" font-family="Biome,Biome_MSFontService,sans-serif" font-weight="400" font-size="275" transform="matrix(1 0 0 1 1769.28 993)">TEXTO</text></g></svg>