<svg width="3272" height="871" xmlns="http://www.w3.org/2000/svg" xmlns:xlink="http://www.w3.org/1999/xlink" xml:space="preserve" overflow="hidden"><defs><filter id="fx0" x="-10%" y="-10%" width="120%" height="120%" filterUnits="userSpaceOnUse" primitiveUnits="userSpaceOnUse"><feComponentTransfer color-interpolation-filters="sRGB"><feFuncR type="discrete" tableValues="1 1"/><feFuncG type="discrete" tableValues="1 1"/><feFuncB type="discrete" tableValues="1 1"/><feFuncA type="linear" slope="0.819608" intercept="0"/></feComponentTransfer><feGaussianBlur stdDeviation="6.11484 6.10411"/></filter><clipPath id="clip1"><rect x="761" y="1341" width="3272" height="871"/></clipPath><clipPath id="clip2"><rect x="958" y="1458" width="576" height="576"/></clipPath><clipPath id="clip3"><rect x="958" y="1458" width="576" height="576"/></clipPath><clipPath id="clip4"><rect x="958" y="1458" width="576" height="576"/></clipPath><clipPath id="clip5"><rect x="-6.50398" y="-6.49255" width="830.007" height="230.985"/></clipPath><clipPath id="clip6"><rect x="0" y="0" width="819" height="218"/></clipPath></defs><g clip-path="url(#clip1)" transform="translate(-761 -1341)"><g clip-path="url(#clip2)"><g clip-path="url(#clip3)"><g clip-path="url(#clip4)"><path d="M1413.21 1566.81C1413.21 1593.28 1338.12 1614.73 1245.5 1614.73 1152.88 1614.73 1077.79 1593.28 1077.79 1566.81 1077.79 1540.35 1152.88 1518.9 1245.5 1518.9 1338.12 1518.9 1413.21 1540.35 1413.21 1566.81Z" fill="#FFFFFF"/><path d="M1365.29 1686.6C1358.1 1686.6 1353.31 1681.81 1353.31 1674.62 1353.31 1667.44 1358.1 1662.65 1365.29 1662.65 1372.48 1662.65 1377.27 1667.44 1377.27 1674.62 1377.27 1681.81 1372.48 1686.6 1365.29 1686.6ZM1245.5 1638.69C1153.26 1638.69 1077.79 1617.12 1077.79 1590.77L1077.79 1686.6C1077.79 1712.96 1153.26 1734.52 1245.5 1734.52 1337.74 1734.52 1413.21 1712.96 1413.21 1686.6L1413.21 1590.77C1413.21 1617.12 1337.74 1638.69 1245.5 1638.69Z" fill="#FFFFFF"/><path d="M1365.29 1806.4C1358.1 1806.4 1353.31 1801.6 1353.31 1794.42 1353.31 1787.23 1358.1 1782.44 1365.29 1782.44 1372.48 1782.44 1377.27 1787.23 1377.27 1794.42 1377.27 1801.6 1372.48 1806.4 1365.29 1806.4ZM1245.5 1758.48C1153.26 1758.48 1077.79 1736.92 1077.79 1710.56L1077.79 1806.4C1077.79 1832.75 1153.26 1854.31 1245.5 1854.31 1337.74 1854.31 1413.21 1832.75 1413.21 1806.4L1413.21 1710.56C1413.21 1736.92 1337.74 1758.48 1245.5 1758.48Z" fill="#FFFFFF"/><path d="M1365.29 1926.19C1358.1 1926.19 1353.31 1921.4 1353.31 1914.21 1353.31 1907.02 1358.1 1902.23 1365.29 1902.23 1372.48 1902.23 1377.27 1907.02 1377.27 1914.21 1377.27 1921.4 1372.48 1926.19 1365.29 1926.19ZM1245.5 1878.27C1153.26 1878.27 1077.79 1856.71 1077.79 1830.35L1077.79 1926.19C1077.79 1952.54 1153.26 1974.1 1245.5 1974.1 1337.74 1974.1 1413.21 1952.54 1413.21 1926.19L1413.21 1830.35C1413.21 1856.71 1337.74 1878.27 1245.5 1878.27Z" fill="#FFFFFF"/></g></g></g><g clip-path="url(#clip5)" filter="url(#fx0)" transform="matrix(3.99756 0 0 4.00459 760 1340)"><g clip-path="url(#clip6)"><path d="M19.3004 19.2533 766.109 19.2533 799.777 52.8621 799.777 198.797 799.777 198.797 52.9683 198.797 19.3004 165.189 19.3004 19.2533Z" stroke="#FFFFFF" stroke-miterlimit="8" fill="none" fill-rule="evenodd"/></g></g><path d="M806.5 1389.5 3791.91 1389.5 3926.5 1524.09 3926.5 2108.5 3926.5 2108.5 941.089 2108.5 806.5 1973.91 806.5 1389.5Z" stroke="#FFFFFF" stroke-width="4.58333" stroke-miterlimit="8" fill="none" fill-rule="evenodd"/><text fill="#FFFFFF" font-family="Biome,Biome_MSFontService,sans-serif" font-weight="400" font-size="202" transform="matrix(1 0 0 1 1537.25 1813)">TRAJETÓRIA PESSOAL</text></g></svg>