<svg width="96" height="96" xmlns="http://www.w3.org/2000/svg" xmlns:xlink="http://www.w3.org/1999/xlink" xml:space="preserve" overflow="hidden"><defs><clipPath id="clip0"><rect x="413" y="55" width="96" height="96"/></clipPath></defs><g clip-path="url(#clip0)" transform="translate(-413 -55)"><path d="M477 85C477 93.8366 469.837 101 461 101 452.163 101 445 93.8366 445 85 445 76.1634 452.163 69 461 69 469.837 69 477 76.1634 477 85Z" fill="#FFFFFF"/><path d="M493 137 493 121C493 118.6 491.8 116.2 489.8 114.6 485.4 111 479.8 108.6 474.2 107 470.2 105.8 465.8 105 461 105 456.6 105 452.2 105.8 447.8 107 442.2 108.6 436.6 111.4 432.2 114.6 430.2 116.2 429 118.6 429 121L429 137 493 137Z" fill="#FFFFFF"/></g></svg>