<svg width="96" height="96" xmlns="http://www.w3.org/2000/svg" xmlns:xlink="http://www.w3.org/1999/xlink" xml:space="preserve" overflow="hidden"><defs><clipPath id="clip0"><rect x="592" y="312" width="96" height="96"/></clipPath></defs><g clip-path="url(#clip0)" transform="translate(-592 -312)"><path d="M670.8 333.39 674.361 329.855C675.136 329.174 675.212 327.994 674.531 327.219 674.493 327.175 674.452 327.133 674.41 327.093L670.91 323.593C670.152 322.817 668.907 322.802 668.131 323.561 668.12 323.571 668.11 323.582 668.099 323.593L664.538 327.128Z" fill="#FFFFFF"/><path d="M658.002 372.5 658.002 369.5 650.502 369.5 650.502 380.5 649.002 380.5 649.002 383.5 668.502 383.5 668.502 348.5 660.061 348.5 657.061 351.5 665.502 351.5 665.502 360.5 650 360.5 650 363.5 665.502 363.5 665.502 369.5 663.002 369.5 663.002 372.5 665.502 372.5 665.502 380.5 653.502 380.5 653.502 372.5 658.002 372.5Z" fill="#FFFFFF"/><path d="M673.561 335 667.561 341 675 341 675 390 616.475 390C616.707 389.354 616.863 388.682 616.941 388L617 387 617 341 646.48 341 652.469 335 617 335 617 334C617 329.029 612.971 325 608 325 603.029 325 599 329.029 599 334L599 387 599.059 388C599.557 392.382 603.154 395.759 607.559 395.978L607.559 396 681 396 681 335ZM608 390C606.343 390 605 388.657 605 387 605 385.343 606.343 384 608 384 609.657 384 611 385.343 611 387 611 388.657 609.657 390 608 390ZM611 378.525C609.061 377.825 606.939 377.825 605 378.525L605 334C605 332.343 606.343 331 608 331 609.657 331 611 332.343 611 334Z" fill="#FFFFFF"/><path d="M636.001 351.5 638.995 348.5 623.5 348.5 623.5 383.5 643.002 383.5 643.002 380.5 641.502 380.5 641.502 369.5 634.002 369.5 634.002 372.5 638.502 372.5 638.502 380.5 626.5 380.5 626.5 372.5 629.002 372.5 629.002 369.5 626.5 369.5 626.5 363.5 632.011 363.5 633.006 360.5 626.5 360.5 626.5 351.5 636.001 351.5Z" fill="#FFFFFF"/><path d="M663.14 328.554 638.609 353.133 635.5 362.5 644.92 359.393 669.45 334.862ZM643.886 357.67 639.694 359.052 638.955 358.312 640.335 354.12C641.337 353.172 642.911 353.194 643.886 354.169 644.853 355.108 644.875 356.652 643.937 357.619 643.92 357.637 643.903 357.653 643.886 357.67Z" fill="#FFFFFF"/></g></svg>