<svg width="219" height="219" xmlns="http://www.w3.org/2000/svg" xmlns:xlink="http://www.w3.org/1999/xlink" xml:space="preserve" overflow="hidden"><defs><clipPath id="clip0"><rect x="253" y="152" width="219" height="219"/></clipPath></defs><g clip-path="url(#clip0)" transform="translate(-253 -152)"><path d="M271.25 190.781 271.25 332.219 453.75 332.219 453.75 190.781 271.25 190.781ZM300.906 209.031C300.906 211.541 298.853 213.594 296.344 213.594 293.834 213.594 291.781 211.541 291.781 209.031 291.781 206.522 293.834 204.469 296.344 204.469 298.853 204.469 300.906 206.522 300.906 209.031ZM316.875 209.031C316.875 211.541 314.822 213.594 312.312 213.594 309.803 213.594 307.75 211.541 307.75 209.031 307.75 206.522 309.803 204.469 312.312 204.469 314.822 204.469 316.875 206.522 316.875 209.031ZM332.844 209.031C332.844 211.541 330.791 213.594 328.281 213.594 325.772 213.594 323.719 211.541 323.719 209.031 323.719 206.522 325.772 204.469 328.281 204.469 330.791 204.469 332.844 206.522 332.844 209.031ZM284.938 227.281 440.062 227.281 440.062 318.531 284.938 318.531 284.938 227.281Z" fill="#17E8FD"/><path d="M389.419 269.484 415.425 243.478 421.812 249.866 402.194 269.484 421.812 289.103 415.425 295.491Z" fill="#17E8FD"/><path d="M349.041 286.594 385.541 286.594 385.541 295.719 349.041 295.719Z" fill="#17E8FD"/></g></svg>